PathFileType	4	(x/y/z)	S09_PSF_T07
DataRate	CameraRate	NumFrames	NumMarkers	Units	OrigDataRate	OrigDataStartFrame	OrigNumFrames
240	240	8	51	mm	240	1	456
Frame#	Time	Sternum			R.Acromium			L.Acromium			Top.Head			R.ASIS			L.ASIS			R.PSIS			L.PSIS			R.Great.Tro			L.Great.Tro			R.Iliac.Crest			L.Iliac.Crest			V.Sacral			R.Thigh.Upper.Post			R.Thigh.Lower.Ant			R.Thigh.Lower.Post			R.Thigh.Upper.Ant			R.Knee.Lat			R.Knee.Med			R.Shank.Upper.Post			R.Shank.Lower.Ant			R.Shank.Lower.Post			R.Shank.Upper.Ant			R.Ankle.Lat			R.Ankle.Med			R.Heel.Upper			R.Heel.Med			R.Heel.Lat			R.Toe.Lat			R.Toe.Med			R.Toe.Tip			L.Thigh.Upper.Post			L.Thigh.Lower.Ant			L.Thigh.Lower.Post			L.Thigh.Upper.Ant			L.Knee.Lat			L.Knee.Med			L.Shank.Upper.Post			L.Shank.Lower.Ant			L.Shank.Lower.Post			L.Shank.Upper.Ant			L.Ankle.Lat			L.Ankle.Med			L.Heel.Upper			L.Heel.Med			L.Heel.Lat			L.Toe.Lat			L.Toe.Med			L.Toe.Tip			Cervical.Spine			Back			
		X1	Y1	Z1	X2	Y2	Z2	X3	Y3	Z3	X4	Y4	Z4	X5	Y5	Z5	X6	Y6	Z6	X7	Y7	Z7	X8	Y8	Z8	X9	Y9	Z9	X10	Y10	Z10	X11	Y11	Z11	X12	Y12	Z12	X13	Y13	Z13	X14	Y14	Z14	X15	Y15	Z15	X16	Y16	Z16	X17	Y17	Z17	X18	Y18	Z18	X19	Y19	Z19	X20	Y20	Z20	X21	Y21	Z21	X22	Y22	Z22	X23	Y23	Z23	X24	Y24	Z24	X25	Y25	Z25	X26	Y26	Z26	X27	Y27	Z27	X28	Y28	Z28	X29	Y29	Z29	X30	Y30	Z30	X31	Y31	Z31	X32	Y32	Z32	X33	Y33	Z33	X34	Y34	Z34	X35	Y35	Z35	X36	Y36	Z36	X37	Y37	Z37	X38	Y38	Z38	X39	Y39	Z39	X40	Y40	Z40	X41	Y41	Z41	X42	Y42	Z42	X43	Y43	Z43	X44	Y44	Z44	X45	Y45	Z45	X46	Y46	Z46	X47	Y47	Z47	X48	Y48	Z48	X49	Y49	Z49	X50	Y50	Z50	X51	Y51	Z51	

1	0	NaN	NaN	NaN	-1692.8	1405.4	539.73	-1702.6	1401.7	225.51	-1663.1	1707.6	374.62	NaN	NaN	NaN	NaN	NaN	NaN	-1843.3	1026.4	400.33	-1824.4	1015.2	312.67	-1735	915.95	570.5	-1672.8	896.56	183.55	-1725.8	1077.3	539.81	NaN	NaN	NaN	-1853.8	986.03	351.83	NaN	NaN	NaN	NaN	NaN	NaN	-1850.9	596.85	497.8	NaN	NaN	NaN	-1829.9	498.61	479.47	-1827.9	493.78	359.45	-1968	365.49	474.61	-1917.6	284.21	459.46	-1999.7	297.33	459.73	NaN	NaN	NaN	NaN	NaN	NaN	-2013.2	121.91	344.66	-2110.5	98.246	379.23	-2100.8	63.44	352.99	-2113.6	69.47	416.22	NaN	NaN	NaN	-1902.2	46.906	373.01	-1855.1	55.763	421.86	-1636.3	629.63	237.09	-1530.7	571.57	231.24	-1590.4	554.71	257.66	-1580.4	645.74	203.94	-1501.5	501.23	247.45	-1488.5	519.75	382.65	NaN	NaN	NaN	NaN	NaN	NaN	-1437.8	296.4	249.13	NaN	NaN	NaN	-1309	131.73	275.14	-1290.9	146.28	367.95	-1345.1	60.04	335.64	-1314.8	51.375	368.25	-1323.1	33.599	309.16	-1183.6	127.32	241.32	-1156.8	166.64	344.2	-1127.6	203.84	282.62	-1768.6	1456.1	396.83	-1825.8	1188.7	381.47
2	0.0041667	NaN	NaN	NaN	-1687.7	1404.3	539.23	-1697.5	1400.7	225.05	-1658.1	1706.6	374.3	NaN	NaN	NaN	NaN	NaN	NaN	-1837.5	1025.4	400.18	-1818.5	1014.3	312.53	-1729.4	914.72	570.32	-1665.8	895.62	183.66	-1720.1	1076.2	539.69	NaN	NaN	NaN	-1847.9	985.14	351.61	NaN	NaN	NaN	NaN	NaN	NaN	-1846.3	596.04	497.44	NaN	NaN	NaN	-1825.4	497.7	479.19	-1823.4	492.82	359.23	-1964.5	365.73	474.33	-1915	284.11	459.39	-1997.1	297.89	459.5	NaN	NaN	NaN	NaN	NaN	NaN	-2012.3	122.71	344.63	-2109.9	99.69	379.24	-2100.4	64.868	352.9	-2113.1	70.87	416.13	NaN	NaN	NaN	-1902	46.905	373.1	-1854.9	55.444	421.99	-1629.7	628.94	237.11	-1524	571.07	231.81	-1583.8	554.13	257.92	-1573.1	644.93	204.48	-1495	500.5	248.14	-1482.2	519.45	383.14	NaN	NaN	NaN	NaN	NaN	NaN	-1433.6	294.96	249.93	NaN	NaN	NaN	-1306.8	129.6	275.91	-1288.6	143.57	368.59	-1343.5	58.923	336.12	-1313.4	49.907	368.71	-1321.9	32.417	309.58	-1181.5	124.5	242.01	-1154.3	163.29	345.14	-1125	200.47	283.51	-1763.6	1455	396.35	-1820.3	1187.4	381.2
3	0.0083333	NaN	NaN	NaN	-1682.5	1403.2	538.7	-1692.3	1399.6	224.57	-1652.9	1705.6	373.97	NaN	NaN	NaN	NaN	NaN	NaN	-1831.4	1024.3	400.01	-1812.3	1013.4	312.38	-1723.6	913.43	570.11	-1658.5	894.66	183.77	-1714	1075	539.56	NaN	NaN	NaN	-1841.7	984.21	351.37	NaN	NaN	NaN	NaN	NaN	NaN	-1841.5	595.2	497.06	NaN	NaN	NaN	-1820.7	496.76	478.89	-1818.7	491.83	358.99	-1960.9	366	474.05	-1912.4	284.01	459.36	-1994.3	298.5	459.27	NaN	NaN	NaN	NaN	NaN	NaN	-2011.3	123.57	344.62	-2109.3	101.25	379.26	-2099.9	66.412	352.81	-2112.7	72.376	416.05	NaN	NaN	NaN	-1901.8	46.907	373.2	-1854.6	55.119	422.12	-1622.7	628.25	237.13	-1517.1	570.54	232.42	-1576.9	553.53	258.18	-1565.5	644.11	205.04	-1488.2	499.75	248.85	-1475.7	519.12	383.63	NaN	NaN	NaN	NaN	NaN	NaN	-1429.3	293.48	250.74	NaN	NaN	NaN	-1304.4	127.44	276.7	-1286.2	140.79	369.27	-1341.7	57.862	336.61	-1312	48.451	369.17	-1320.6	31.288	310	-1179.2	121.56	242.73	-1151.8	159.78	346.1	-1122.2	196.92	284.41	-1758.5	1453.8	395.84	-1814.5	1186	380.91
4	0.0125	NaN	NaN	NaN	-1677.1	1402.1	538.15	-1686.9	1398.6	224.06	-1647.6	1704.6	373.62	NaN	NaN	NaN	NaN	NaN	NaN	-1825	1023.3	399.84	-1806	1012.4	312.21	-1717.6	912.11	569.9	-1650.8	893.68	183.86	-1707.7	1073.7	539.42	NaN	NaN	NaN	-1835.3	983.26	351.11	NaN	NaN	NaN	NaN	NaN	NaN	-1836.5	594.33	496.67	NaN	NaN	NaN	-1815.8	495.79	478.59	-1813.8	490.8	358.74	-1957.1	366.29	473.77	-1909.6	283.91	459.36	-1991.3	299.15	459.05	NaN	NaN	NaN	NaN	NaN	NaN	-2010.3	124.49	344.63	-2108.6	102.92	379.29	-2099.4	68.077	352.72	-2112.1	73.994	415.96	NaN	NaN	NaN	-1901.5	46.911	373.3	-1854.4	54.79	422.25	-1615.6	627.54	237.14	-1509.9	569.99	233.05	-1569.8	552.92	258.44	-1557.7	643.3	205.6	-1481.2	498.98	249.55	-1469	518.77	384.11	NaN	NaN	NaN	NaN	NaN	NaN	-1424.8	291.99	251.56	NaN	NaN	NaN	-1301.9	125.27	277.5	-1283.6	137.97	369.97	-1339.9	56.886	337.12	-1310.6	47.036	369.65	-1319.3	30.244	310.43	-1176.9	118.52	243.46	-1149.1	156.11	347.08	-1119.3	193.21	285.32	-1753.1	1452.6	395.31	-1808.6	1184.7	380.6
5	0.016667	NaN	NaN	NaN	-1671.6	1400.9	537.59	-1681.3	1397.5	223.53	-1642.1	1703.6	373.26	NaN	NaN	NaN	NaN	NaN	NaN	-1818.5	1022.2	399.65	-1799.4	1011.5	312.02	-1711.4	910.76	569.67	-1642.9	892.7	183.92	-1701.3	1072.5	539.27	NaN	NaN	NaN	-1828.7	982.29	350.84	NaN	NaN	NaN	NaN	NaN	NaN	-1831.2	593.42	496.26	NaN	NaN	NaN	-1810.7	494.78	478.28	-1808.7	489.75	358.48	-1953.1	366.62	473.51	-1906.7	283.81	459.4	-1988.2	299.85	458.83	NaN	NaN	NaN	NaN	NaN	NaN	-2009.2	125.49	344.66	-2107.8	104.71	379.32	-2098.9	69.868	352.64	-2111.5	75.728	415.88	NaN	NaN	NaN	-1901.2	46.918	373.41	-1854.1	54.46	422.39	-1608.2	626.85	237.14	-1502.6	569.43	233.69	-1562.5	552.3	258.69	-1549.7	642.51	206.17	-1474	498.19	250.23	-1462.2	518.4	384.57	NaN	NaN	NaN	NaN	NaN	NaN	-1420.2	290.51	252.38	NaN	NaN	NaN	-1299.3	123.13	278.31	-1280.9	135.14	370.69	-1338	56.023	337.62	-1309.1	45.688	370.12	-1318	29.312	310.85	-1174.5	115.39	244.2	-1146.3	152.3	348.05	-1116.3	189.33	286.23	-1747.6	1451.4	394.76	-1802.4	1183.2	380.28
6	0.020833	NaN	NaN	NaN	-1665.9	1399.7	537	-1675.6	1396.4	222.98	-1636.4	1702.6	372.89	NaN	NaN	NaN	NaN	NaN	NaN	-1811.7	1021.1	399.44	-1792.6	1010.5	311.82	-1705	909.39	569.42	-1634.8	891.73	183.97	-1694.6	1071.2	539.11	NaN	NaN	NaN	-1822	981.31	350.56	NaN	NaN	NaN	NaN	NaN	NaN	-1825.7	592.49	495.83	NaN	NaN	NaN	-1805.4	493.76	477.98	-1803.4	488.67	358.2	-1949	366.97	473.25	-1903.6	283.72	459.48	-1984.9	300.61	458.63	NaN	NaN	NaN	NaN	NaN	NaN	-2008	126.56	344.71	-2106.9	106.62	379.36	-2098.3	71.794	352.57	-2110.9	77.582	415.81	NaN	NaN	NaN	-1901	46.929	373.52	-1853.9	54.134	422.53	-1600.8	626.17	237.13	-1495.1	568.85	234.36	-1555.1	551.67	258.92	-1541.7	641.75	206.75	-1466.7	497.41	250.89	-1455.2	518.02	384.99	-1449.2	357.46	245.95	NaN	NaN	NaN	-1415.5	289.05	253.19	NaN	NaN	NaN	-1296.6	121.04	279.11	-1278.1	132.33	371.43	-1336	55.294	338.12	-1307.7	44.427	370.6	-1316.7	28.514	311.27	-1172.1	112.2	244.94	-1143.3	148.37	349.03	-1113.1	185.31	287.12	-1742	1450.2	394.19	-1796.1	1181.8	379.95
7	0.025	NaN	NaN	NaN	-1660.1	1398.6	536.41	-1669.8	1395.3	222.41	-1630.7	1701.6	372.51	NaN	NaN	NaN	NaN	NaN	NaN	-1804.9	1020	399.23	-1785.7	1009.6	311.6	-1698.5	908.01	569.16	-1626.6	890.78	183.98	-1687.8	1070	538.94	NaN	NaN	NaN	-1815.1	980.33	350.26	NaN	NaN	NaN	NaN	NaN	NaN	-1820.1	591.54	495.38	NaN	NaN	NaN	-1800	492.72	477.68	-1798	487.59	357.92	-1944.7	367.36	473.02	-1900.5	283.65	459.6	-1981.5	301.41	458.44	NaN	NaN	NaN	NaN	NaN	NaN	-2006.8	127.69	344.79	-2106	108.66	379.41	-2097.7	73.862	352.5	-2110.2	79.564	415.74	NaN	NaN	NaN	-1900.7	46.943	373.64	-1853.6	53.814	422.66	-1593.2	625.53	237.1	-1487.5	568.28	235.03	-1547.6	551.06	259.14	-1533.6	641.03	207.31	-1459.3	496.64	251.52	-1448.2	517.61	385.38	-1444.4	356.65	246.46	NaN	NaN	NaN	-1410.6	287.64	253.97	NaN	NaN	NaN	-1293.7	119.02	279.91	-1275.2	129.56	372.18	-1333.9	54.714	338.62	-1306.2	43.271	371.07	-1315.4	27.865	311.68	-1169.6	108.96	245.7	-1140.4	144.33	349.99	-1109.8	181.15	288	-1736.3	1448.9	393.59	-1789.7	1180.3	379.6
8	0.029167	NaN	NaN	NaN	-1654.3	1397.5	535.8	-1663.9	1394.2	221.83	-1625	1700.6	372.13	NaN	NaN	NaN	NaN	NaN	NaN	-1797.9	1018.9	399.01	-1778.7	1008.7	311.36	-1691.8	906.63	568.89	-1618.2	889.89	183.95	-1680.8	1068.7	538.76	NaN	NaN	NaN	-1808	979.36	349.94	NaN	NaN	NaN	NaN	NaN	NaN	-1814.2	590.57	494.93	NaN	NaN	NaN	-1794.4	491.66	477.38	-1792.3	486.49	357.64	-1940.2	367.79	472.82	-1897.3	283.59	459.76	-1978	302.26	458.28	NaN	NaN	NaN	NaN	NaN	NaN	-2005.4	128.91	344.91	-2104.9	110.83	379.46	-2097	76.081	352.44	-2109.5	81.679	415.69	NaN	NaN	NaN	-1900.4	46.961	373.77	-1853.3	53.501	422.8	-1585.7	624.92	237.05	-1479.8	567.7	235.7	-1540.1	550.45	259.33	-1525.5	640.36	207.87	-1451.9	495.89	252.1	-1441.1	517.19	385.71	-1439.4	355.85	246.96	NaN	NaN	NaN	-1405.6	286.28	254.72	NaN	NaN	NaN	-1290.8	117.1	280.68	-1272.2	126.85	372.93	-1331.7	54.292	339.1	-1304.7	42.233	371.53	-1314.1	27.374	312.07	-1167.1	105.68	246.45	-1137.3	140.19	350.94	-1106.4	176.86	288.87	-1730.6	1447.7	392.98	-1783.1	1178.8	379.24
